<?xml version="1.0" encoding="utf-8"?>
<!-- Generator: Adobe Illustrator 27.4.1, SVG Export Plug-In . SVG Version: 6.00 Build 0)  -->
<svg version="1.1" id="Layer_1" xmlns="http://www.w3.org/2000/svg" xmlns:xlink="http://www.w3.org/1999/xlink" x="0px" y="0px"
	 width="1155px" height="180px" viewBox="0 0 1155 180" style="enable-background:new 0 0 1155 180;" xml:space="preserve">
<style type="text/css">
	.st0{fill:#4A53F2;}
	.st1{fill:#7FD333;}
	.st2{fill:#66A52E;}
	.st3{fill:#353CB8;}
</style>
<g>
	<path class="st0" d="M14.26,25.27l20.27,39.81l6.12,12.01l51.25,100.66l30.14-59.22L96.75,68.88l-4.86,9.54l-6.8-13.34L59.81,15.41
		L53.11,2.24L14.26,25.27z M124.22,14.93l25.28,49.67l20.02-39.33L130.67,2.24L124.22,14.93z"/>
	<path class="st0" d="M304.73,110.35c1.15-2.23,2.9-4.07,5.04-5.32c2.29-1.3,4.87-1.96,7.49-1.9c2.6-0.06,5.17,0.6,7.44,1.9
		c2.11,1.25,3.84,3.07,4.99,5.27c0.81,1.56,1.34,3.25,1.57,5h-28.08C303.42,113.58,303.94,111.91,304.73,110.35 M301.54,94.17
		c-4.51,2.48-8.27,6.16-10.89,10.65c-2.71,4.72-4.09,10.12-3.98,15.59c-0.09,5.44,1.3,10.8,4.04,15.48
		c2.75,4.59,6.71,8.3,11.42,10.7c9.69,4.65,20.79,5.17,30.86,1.47c3.78-1.51,7.17-3.91,9.87-7.01l-8.82-9.78
		c-1.82,1.82-3.96,3.26-6.32,4.24c-2.56,0.99-5.28,1.47-8.02,1.41c-3.06,0.08-6.1-0.58-8.87-1.9c-2.45-1.2-4.48-3.13-5.84-5.54
		c-0.75-1.34-1.3-2.78-1.63-4.29h43.22c0.07-0.72,0.14-1.5,0.22-2.34c0.08-0.83,0.11-1.58,0.11-2.23c0.15-5.68-1.21-11.3-3.93-16.25
		c-2.53-4.44-6.23-8.05-10.68-10.43c-4.78-2.43-10.06-3.67-15.4-3.64C311.54,90.36,306.28,91.68,301.54,94.17 M379.71,93.53
		c-2.34,1.31-4.37,3.14-5.95,5.35v-7.7h-15.83v58.46h16.57v-27.59c0-5.58,1.4-9.69,4.2-12.34c3.02-2.73,6.96-4.15,10.99-3.97
		c0.64,0,1.24,0.02,1.8,0.05c0.57,0.03,1.21,0.09,1.91,0.16V90.31c-4.76-0.15-9.48,0.95-13.7,3.2 M411.79,92.75
		c-3.57,1.33-6.71,3.65-9.08,6.68c-2.08,2.81-3.19,6.25-3.13,9.78c-0.12,2.84,0.53,5.66,1.86,8.15c1.21,2.07,2.91,3.79,4.94,5
		c2.12,1.26,4.41,2.19,6.8,2.77c2.48,0.62,4.94,1.11,7.38,1.47c2.44,0.36,4.69,0.72,6.75,1.09c1.72,0.25,3.38,0.78,4.94,1.57
		c0.57,0.28,1.05,0.72,1.38,1.27c0.33,0.55,0.5,1.19,0.48,1.83c0,0.82-0.22,1.62-0.64,2.31c-0.43,0.69-1.03,1.25-1.75,1.6
		c-2.56,1.13-5.35,1.62-8.13,1.41c-3.58-0.01-7.14-0.54-10.57-1.57c-3.27-0.91-6.39-2.28-9.29-4.07l-5.53,12.17
		c3.29,2.1,6.9,3.62,10.67,4.51c4.6,1.21,9.33,1.81,14.08,1.79c4.97,0.13,9.92-0.68,14.6-2.39c3.59-1.29,6.77-3.57,9.19-6.57
		c2.11-2.74,3.23-6.13,3.19-9.62c0.12-2.83-0.54-5.63-1.91-8.09c-1.23-2.02-2.92-3.7-4.94-4.89c-2.11-1.23-4.39-2.17-6.75-2.77
		c-2.43-0.64-4.9-1.13-7.38-1.46c-2.44-0.33-4.69-0.71-6.75-1.14c-1.72-0.32-3.39-0.9-4.94-1.74c-0.58-0.31-1.06-0.78-1.39-1.35
		c-0.33-0.58-0.49-1.24-0.47-1.91c0.03-0.83,0.28-1.63,0.74-2.32c0.45-0.69,1.08-1.24,1.81-1.59c2.53-1.19,5.3-1.71,8.07-1.52
		c2.73,0.01,5.46,0.32,8.13,0.92c2.94,0.68,5.75,1.83,8.33,3.42l5.52-12.06c-3.13-1.84-6.54-3.13-10.09-3.81
		c-3.91-0.86-7.9-1.29-11.9-1.3C421.18,90.18,416.34,91.01,411.79,92.75 M475.05,137.18c-0.8-0.58-1.45-1.36-1.88-2.26
		c-0.44-0.9-0.65-1.9-0.61-2.9c-0.02-0.93,0.17-1.85,0.55-2.7c0.38-0.85,0.93-1.6,1.63-2.19c2.38-1.56,5.21-2.25,8.02-1.95h11.37
		v5.98c-0.88,2.47-2.57,4.56-4.78,5.92c-2.25,1.36-4.82,2.06-7.44,2.02C479.48,139.23,477.08,138.57,475.05,137.18 M469.79,92.15
		c-4.02,1.06-7.83,2.82-11.26,5.22l5.95,11.84c2.24-1.77,4.78-3.11,7.49-3.97c2.9-0.97,5.93-1.47,8.97-1.47
		c3.57-0.29,7.11,0.79,9.93,3.04c1.11,1.09,1.97,2.41,2.52,3.88c0.56,1.46,0.81,3.03,0.72,4.6h-13.17c-4.8-0.17-9.6,0.59-14.13,2.23
		c-3.2,1.16-5.96,3.3-7.92,6.14c-1.64,2.73-2.51,5.88-2.49,9.08c0.01,3.21,0.89,6.34,2.55,9.06c1.81,2.78,4.35,4.98,7.33,6.36
		c3.6,1.64,7.52,2.44,11.47,2.33c4.29,0.18,8.55-0.83,12.32-2.93c2.1-1.28,3.86-3.07,5.1-5.23v7.29h15.51v-33.36
		c0-8.91-2.41-15.47-7.22-19.67c-4.82-4.2-11.58-6.3-20.29-6.3C478.65,90.31,474.15,90.93,469.79,92.15 M547.34,93.46
		c-2.2,1.2-4.18,2.78-5.84,4.68v-6.95h-15.83v58.46h16.57v-28.91c-0.11-3.07,0.49-6.12,1.76-8.91c1.06-2.2,2.77-4.01,4.89-5.16
		c2.18-1.15,4.61-1.72,7.06-1.68c1.58-0.1,3.16,0.15,4.63,0.73c1.48,0.58,2.81,1.48,3.92,2.63c2.25,2.97,3.33,6.69,3.03,10.43v30.86
		h16.57v-33.47c0.2-5.06-0.86-10.08-3.07-14.61c-1.9-3.64-4.85-6.6-8.45-8.47c-3.78-1.89-7.95-2.84-12.16-2.77
		C555.86,90.23,551.37,91.31,547.34,93.46 M657.29,110.35c1.15-2.23,2.9-4.07,5.04-5.32c2.29-1.3,4.87-1.96,7.49-1.9
		c2.6-0.06,5.17,0.6,7.44,1.9c2.11,1.25,3.84,3.07,4.99,5.27c0.81,1.56,1.34,3.25,1.57,5h-28.08
		C655.98,113.57,656.5,111.9,657.29,110.35 M654.1,94.17c-4.51,2.47-8.27,6.16-10.89,10.65c-2.71,4.72-4.08,10.12-3.98,15.59
		c-0.09,5.44,1.31,10.8,4.04,15.48c2.75,4.59,6.71,8.3,11.42,10.7c9.69,4.65,20.78,5.17,30.86,1.47c3.78-1.51,7.17-3.91,9.87-7.01
		l-8.82-9.78c-1.81,1.82-3.96,3.26-6.32,4.24c-2.56,0.99-5.28,1.47-8.02,1.41c-3.06,0.08-6.1-0.57-8.87-1.9
		c-2.45-1.2-4.48-3.13-5.84-5.54c-0.75-1.34-1.3-2.78-1.63-4.29h43.22c0.07-0.72,0.14-1.5,0.22-2.34c0.08-0.83,0.11-1.58,0.11-2.23
		c0.15-5.68-1.21-11.29-3.93-16.24c-2.53-4.44-6.23-8.05-10.68-10.44c-4.78-2.43-10.06-3.67-15.4-3.63
		C664.11,90.35,658.85,91.67,654.1,94.17 M601.1,78.24v14.23h-8.82v13.04h8.82v24c0,6.95,1.88,12.19,5.63,15.7
		c4.39,3.74,10.01,5.63,15.72,5.27c2.49,0.01,4.97-0.3,7.38-0.92c2.19-0.53,4.26-1.47,6.11-2.77l-4.46-11.95
		c-1.92,1.48-4.28,2.24-6.69,2.17c-0.96,0.05-1.91-0.1-2.81-0.45c-0.89-0.35-1.71-0.88-2.39-1.57c-0.67-0.78-1.19-1.68-1.51-2.66
		c-0.33-0.98-0.46-2.01-0.4-3.05v-23.77h14.23V92.48h-14.23V78.25L601.1,78.24z M273.08,73.57l-22.96,54.33l-22.61-54.33h-18.59
		l32.07,76.07h17l32.2-76.07H273.08z"/>
	<path class="st1" d="M719.79,100.99c2.41-2.43,5.27-4.34,8.42-5.61c3.34-1.34,6.9-2.01,10.48-1.98c3.31-0.02,6.6,0.55,9.72,1.68
		c3.15,1.18,6.01,3.04,8.37,5.47l2.7-2.84c-2.58-2.81-5.76-4.96-9.3-6.28c-3.73-1.4-7.68-2.1-11.66-2.07
		c-4.15-0.04-8.26,0.73-12.12,2.28c-3.62,1.47-6.92,3.65-9.72,6.42c-2.77,2.75-4.96,6.04-6.44,9.69c-3.03,7.83-3.03,16.54,0,24.37
		c1.47,3.64,3.65,6.93,6.4,9.69c2.79,2.78,6.09,4.96,9.72,6.42c7.66,2.98,16.12,3.04,23.82,0.17c3.54-1.35,6.72-3.51,9.3-6.33
		l-2.7-2.84c-2.35,2.47-5.21,4.37-8.37,5.55c-3.12,1.13-6.41,1.7-9.72,1.68c-3.58,0.03-7.14-0.64-10.48-1.98
		c-3.13-1.26-5.98-3.15-8.38-5.56c-2.4-2.41-4.3-5.29-5.59-8.47c-2.64-6.74-2.64-14.27,0-21.01
		C715.52,106.26,717.41,103.39,719.79,100.99 M798.96,107.7c-3.44-1.98-7.33-2.99-11.28-2.92c-3.93-0.08-7.82,0.93-11.24,2.92
		c-3.26,1.93-5.96,4.71-7.83,8.05c-1.9,3.63-2.9,7.69-2.9,11.82c0,4.12,1,8.18,2.9,11.82c1.86,3.36,4.56,6.16,7.83,8.1
		c3.42,1.98,7.3,2.99,11.24,2.92c3.95,0.07,7.84-0.93,11.28-2.92c3.28-1.92,5.99-4.72,7.83-8.1c1.88-3.64,2.86-7.7,2.86-11.82
		c0-4.12-0.98-8.17-2.86-11.82C804.93,112.39,802.23,109.61,798.96,107.7z M803.08,137.49c-1.44,2.79-3.63,5.11-6.31,6.67
		c-2.77,1.6-5.91,2.42-9.09,2.38c-3.17,0.05-6.29-0.77-9.05-2.37c-2.67-1.58-4.86-3.89-6.32-6.67c-1.52-3.08-2.31-6.48-2.31-9.92
		c0-3.45,0.79-6.85,2.31-9.92c1.47-2.76,3.66-5.06,6.32-6.63c2.75-1.6,5.88-2.42,9.05-2.37c3.18-0.05,6.32,0.77,9.09,2.37
		c2.67,1.56,4.86,3.85,6.31,6.63c1.49,3.08,2.27,6.48,2.27,9.92C805.35,131.02,804.58,134.42,803.08,137.49 M853.55,106.89
		c-2.92-1.46-6.14-2.19-9.39-2.11c-4-0.14-7.95,0.93-11.37,3.06c-2.62,1.71-4.72,4.14-6.06,7.01v-9.72h-4.04v44.95h4.21v-23.94
		c-0.09-3.22,0.59-6.41,1.97-9.3c1.29-2.55,3.3-4.65,5.76-6.03c2.75-1.49,5.82-2.23,8.93-2.15c1.92-0.12,3.84,0.18,5.65,0.86
		c1.8,0.68,3.45,1.74,4.83,3.1c2.69,3.19,4.03,7.34,3.75,11.54v25.92H862v-26.26c0.11-3.65-0.65-7.27-2.23-10.54
		C858.39,110.53,856.22,108.31,853.55,106.89 M910.2,106.89c-2.92-1.46-6.14-2.19-9.39-2.11c-4-0.14-7.95,0.93-11.37,3.06
		c-2.62,1.71-4.72,4.14-6.06,7.01v-9.72h-4.04v44.95h4.21v-23.95c-0.09-3.22,0.59-6.41,1.97-9.3c1.29-2.55,3.3-4.65,5.77-6.03
		c2.74-1.49,5.82-2.23,8.92-2.15c1.92-0.12,3.84,0.18,5.65,0.86c1.8,0.68,3.45,1.74,4.83,3.1c2.69,3.19,4.04,7.34,3.75,11.54v25.92
		h4.21v-26.26c0.12-3.65-0.65-7.27-2.23-10.54C915.04,110.53,912.86,108.3,910.2,106.89 M962.97,107.62
		c-3.26-1.92-6.97-2.9-10.73-2.84c-3.78-0.06-7.51,0.95-10.77,2.92c-3.18,1.93-5.78,4.72-7.53,8.05c-1.88,3.64-2.82,7.72-2.74,11.84
		c-0.07,4.13,0.93,8.2,2.91,11.79c1.89,3.4,4.65,6.2,8,8.1c3.6,2,7.65,3,11.75,2.92c3.22,0.03,6.41-0.6,9.39-1.85
		c2.81-1.17,5.28-3.05,7.2-5.47l-2.44-2.84c-1.64,2.09-3.76,3.72-6.19,4.74c-2.5,1.04-5.17,1.57-7.87,1.55
		c-3.34,0.06-6.65-0.75-9.6-2.37c-2.76-1.54-5.05-3.83-6.61-6.63c-1.5-2.72-2.32-5.79-2.37-8.91h37.77c0-0.22,0.01-0.43,0.04-0.65
		c0.02-0.19,0.04-0.37,0.04-0.56c0.08-4.12-0.86-8.19-2.74-11.84c-1.73-3.31-4.32-6.07-7.49-7.97 M935.39,125.25
		c0.16-2.72,0.88-5.38,2.12-7.79c1.39-2.7,3.47-4.97,6.02-6.54c2.66-1.55,5.67-2.37,8.73-2.37c3.07,0,6.07,0.82,8.73,2.37
		c2.54,1.59,4.62,3.85,6.02,6.54c1.26,2.4,1.98,5.07,2.11,7.79H935.39z M994.45,111.01c2.57-1.42,5.44-2.23,8.36-2.35
		c2.93-0.13,5.84,0.43,8.52,1.62c2.38,1.11,4.42,2.87,5.9,5.09l3.11-2.33c-1.73-2.7-4.16-4.85-7.03-6.2
		c-3.03-1.41-6.32-2.11-9.65-2.07c-3.98-0.07-7.91,0.92-11.4,2.88c-3.31,1.89-6.05,4.68-7.91,8.05c-1.91,3.64-2.91,7.71-2.91,11.84
		c0,4.13,1,8.2,2.91,11.84c1.87,3.38,4.61,6.18,7.91,8.1c3.21,1.77,6.78,2.76,10.43,2.91c3.65,0.15,7.28-0.55,10.62-2.05
		c2.86-1.36,5.3-3.5,7.03-6.2l-3.11-2.32c-1.48,2.21-3.51,3.97-5.89,5.08c-2.69,1.19-5.6,1.75-8.53,1.62
		c-2.92-0.13-5.78-0.93-8.36-2.35c-2.7-1.55-4.91-3.85-6.4-6.63c-1.52-3.08-2.32-6.49-2.32-9.95c0-3.45,0.79-6.86,2.32-9.95
		C989.54,114.86,991.76,112.57,994.45,111.01 M1046.69,146.7c-1.12,0.08-2.23-0.09-3.28-0.49c-1.05-0.4-2-1.02-2.79-1.83
		c-1.5-1.85-2.26-4.23-2.1-6.63v-28.94h13.97v-3.7h-13.97v-9.8h-4.21v9.82h-8.09v3.7h8.08v29.36c-0.09,1.63,0.14,3.25,0.66,4.79
		c0.53,1.54,1.35,2.95,2.41,4.16c1.18,1.14,2.58,2.03,4.11,2.59c1.53,0.56,3.15,0.8,4.78,0.68c1.67,0,3.33-0.26,4.93-0.77
		c1.52-0.47,2.92-1.3,4.08-2.41l-1.77-3.01c-1.88,1.7-4.32,2.59-6.82,2.5 M1067.3,143.1c-0.46-0.01-0.92,0.08-1.34,0.26
		c-0.43,0.18-0.81,0.44-1.14,0.77c-0.34,0.33-0.61,0.73-0.79,1.18c-0.18,0.45-0.27,0.92-0.26,1.41c-0.01,0.49,0.08,0.97,0.26,1.43
		c0.18,0.45,0.45,0.86,0.79,1.2c0.32,0.34,0.71,0.61,1.14,0.8c0.43,0.18,0.88,0.28,1.35,0.28s0.92-0.1,1.35-0.28
		c0.43-0.18,0.81-0.46,1.14-0.8c0.34-0.34,0.61-0.75,0.79-1.2c0.18-0.45,0.27-0.94,0.26-1.42c0.01-0.48-0.08-0.96-0.26-1.41
		c-0.18-0.45-0.45-0.85-0.79-1.18c-0.33-0.33-0.72-0.59-1.14-0.77C1068.21,143.18,1067.76,143.09,1067.3,143.1z M1106.11,89.8
		l-27.11,60.27h4.63l7.52-16.96h34.19l7.55,16.96h4.63l-27.12-60.28L1106.11,89.8z M1092.8,129.41l15.42-34.77l15.47,34.77H1092.8z
		 M1148.2,150.07h4.3V89.79h-4.3V150.07z"/>
	<path class="st1" d="M2.5,127.99l25.56,49.13l29.7-58.34L32.47,69.11L2.5,127.99z M117.09,2.24H66.52l-1.85,3.63l-4.86,9.54
		L85.1,65.08l4.86-9.54l2.18-4.28l6.8,13.34l25.27,49.67l32.02,62.86L181.79,128L149.5,64.6l-25.29-49.67l-6.46-12.69H117.09z"/>
	<path class="st2" d="M61.8,11.56l5.94,11.66l19.35,37.94l-1.99,3.92L59.81,15.48L61.8,11.56z"/>
	<path class="st3" d="M126.34,10.69l25.29,49.74l-2.12,4.16l-25.29-49.74L126.34,10.69z"/>
</g>
</svg>
